<?xml version="1.0" encoding="UTF-8" standalone="no"?>
<!-- Created with Inkscape (http://www.inkscape.org/) -->

<svg
   xmlns:dc="http://purl.org/dc/elements/1.1/"
   xmlns:cc="http://creativecommons.org/ns#"
   xmlns:rdf="http://www.w3.org/1999/02/22-rdf-syntax-ns#"
   xmlns:svg="http://www.w3.org/2000/svg"
   xmlns="http://www.w3.org/2000/svg"
   xmlns:sodipodi="http://sodipodi.sourceforge.net/DTD/sodipodi-0.dtd"
   xmlns:inkscape="http://www.inkscape.org/namespaces/inkscape"
   width="210mm"
   height="297mm"
   viewBox="0 0 744.09448819 1052.3622047"
   id="svg2"
   version="1.1"
   inkscape:version="0.91 r13725"
   sodipodi:docname="Hakan1.svg">
  <defs
     id="defs4" />
  <sodipodi:namedview
     id="base"
     pagecolor="#ffffff"
     bordercolor="#666666"
     borderopacity="1.0"
     inkscape:pageopacity="0.0"
     inkscape:pageshadow="2"
     inkscape:zoom="0.7"
     inkscape:cx="2089.6216"
     inkscape:cy="414.32268"
     inkscape:document-units="px"
     inkscape:current-layer="layer1"
     showgrid="false"
     inkscape:object-paths="true"
     inkscape:object-nodes="true"
     inkscape:snap-smooth-nodes="true"
     inkscape:snap-midpoints="true"
     inkscape:snap-intersection-paths="true"
     inkscape:window-width="1366"
     inkscape:window-height="704"
     inkscape:window-x="-4"
     inkscape:window-y="-4"
     inkscape:window-maximized="1"
     inkscape:snap-nodes="true"
     showguides="true"
     inkscape:guide-bbox="true" />
  <metadata
     id="metadata7">
    <rdf:RDF>
      <cc:Work
         rdf:about="">
        <dc:format>image/svg+xml</dc:format>
        <dc:type
           rdf:resource="http://purl.org/dc/dcmitype/StillImage" />
        <dc:title />
      </cc:Work>
    </rdf:RDF>
  </metadata>
  <g
     inkscape:label="Layer 1"
     inkscape:groupmode="layer"
     id="layer1">
    <rect
       style="opacity:1;fill:#ffffff;fill-opacity:1;fill-rule:evenodd;stroke:none;stroke-width:5;stroke-linecap:square;stroke-linejoin:round;stroke-miterlimit:4;stroke-dasharray:none;stroke-dashoffset:0;stroke-opacity:1"
       id="rect4574"
       width="598.78314"
       height="435.98331"
       x="1927.371"
       y="434.14883"
       inkscape:export-xdpi="300.60999"
       inkscape:export-ydpi="300.60999" />
    <rect
       style="opacity:1;fill:#ff0000;fill-opacity:1;fill-rule:evenodd;stroke:none;stroke-width:5;stroke-linecap:square;stroke-linejoin:round;stroke-miterlimit:4;stroke-dasharray:none;stroke-dashoffset:0;stroke-opacity:1"
       id="rect5244"
       width="660.55139"
       height="87.721054"
       x="41.893463"
       y="452.35632" />
    <text
       xml:space="preserve"
       style="font-style:normal;font-weight:normal;font-size:122.17416382px;line-height:125%;font-family:sans-serif;letter-spacing:0px;word-spacing:0px;fill:#000000;fill-opacity:1;stroke:none;stroke-width:1px;stroke-linecap:butt;stroke-linejoin:miter;stroke-opacity:1"
       x="200.66661"
       y="424.36307"
       id="text4136"
       sodipodi:linespacing="125%"><tspan
         sodipodi:role="line"
         x="200.66661"
         y="424.36307"
         style="font-style:normal;font-variant:normal;font-weight:normal;font-stretch:normal;font-family:KaiskiHelve1;-inkscape-font-specification:KaiskiHelve1;letter-spacing:-13.59187508px"
         id="tspan4142"><tspan
   style="letter-spacing:-13.59379196px"
   id="tspan5206">H</tspan><tspan
   style="letter-spacing:-30.39082146px"
   id="tspan4932">A</tspan><tspan
   style="letter-spacing:-13.59379196px"
   id="tspan5208">K</tspan><tspan
   style="letter-spacing:-22.99928474px"
   id="tspan5084">A</tspan>N</tspan></text>
    <g
       style="font-style:normal;font-weight:normal;font-size:122.17416382px;line-height:125%;font-family:sans-serif;letter-spacing:0px;word-spacing:0px;fill:#000000;fill-opacity:1;stroke:none;stroke-width:1px;stroke-linecap:butt;stroke-linejoin:miter;stroke-opacity:1"
       id="text5210"
       transform="translate(7.1428571,62.857143)">
      <path
         d="m 263.45451,425.78489 0,-36.28572 11.85089,0 0,87.72104 -11.85089,0 0,-40.92834 -45.81532,0 0,40.92834 -11.85089,0 0,-87.72104 11.85089,0 0,36.28572 45.81532,0 z"
         style="letter-spacing:-13.59379196px"
         id="path5234"
         inkscape:connector-curvature="0" />
      <path
         d="m 314.94327,402.44963 -0.24435,0 -25.0457,74.77058 -13.19481,0 32.00963,-87.72104 12.58394,0 32.00963,87.72104 -13.31699,0 -24.80135,-74.77058 z"
         style="letter-spacing:-30.39082146px"
         id="path5236"
         inkscape:connector-curvature="0" />
      <path
         d="m 392.64031,399.63962 -24.06831,0 q -17.34873,0 -17.34873,14.6609 0,15.76047 17.83742,15.76047 l 23.57962,0 0,-30.42137 z m 0,40.56182 -27.61136,0 q -6.84176,0 -12.09525,-2.19913 -5.13131,-2.32131 -8.06349,-6.10871 -2.93218,-3.90957 -4.39827,-8.30784 -1.46609,-4.52045 -1.46609,-9.40741 0,-10.75133 6.96393,-17.71526 7.0861,-6.96392 19.05917,-6.96392 l 39.46225,0 0,87.72104 -11.85089,0 0,-37.01877 z"
         style="letter-spacing:-13.59379196px"
         id="path5238"
         inkscape:connector-curvature="0" />
      <path
         d="m 444.43643,402.44963 -0.24435,0 -25.0457,74.77058 -13.19481,0 32.00963,-87.72104 12.58394,0 32.00963,87.72104 -13.31698,0 -24.80136,-74.77058 z"
         style="letter-spacing:-22.99928474px"
         id="path5240"
         inkscape:connector-curvature="0" />
      <path
         d="m 515.96368,477.22021 0,-77.21407 -44.4714,0 0,-10.50697 56.32229,0 0,87.72104 -11.85089,0 z"
         style="font-style:normal;font-variant:normal;font-weight:normal;font-stretch:normal;font-family:KaiskiHelve1;-inkscape-font-specification:KaiskiHelve1;letter-spacing:-13.59187508px"
         id="path5242"
         inkscape:connector-curvature="0" />
    </g>
    <path
       style="opacity:1;fill:#ff0000;fill-opacity:1;fill-rule:evenodd;stroke:none;stroke-width:5;stroke-linecap:square;stroke-linejoin:round;stroke-miterlimit:4;stroke-dasharray:none;stroke-dashoffset:0;stroke-opacity:1"
       d="m 6.6718638,564.41782 0,87.72265 208.7285162,0 0,-87.72265 -208.7285162,0 z m 220.5781262,0 0,36.28711 45.81641,0 0,-36.28711 -45.81641,0 z m 57.66602,0 0,87.72265 1.15429,0 32.00977,-87.72265 -33.16406,0 z m 45.74804,0 32.00977,87.72265 39.57812,0 0,-37.01953 -27.61132,0 c -4.56118,0 -8.59338,-0.73313 -12.09571,-2.19921 -3.42087,-1.54756 -6.10771,-3.58445 -8.0625,-6.10938 -1.95478,-2.60638 -3.42104,-5.37446 -4.39843,-8.30664 -0.9774,-3.01363 -1.4668,-6.15023 -1.4668,-9.4082 0,-7.16756 2.32222,-13.07223 6.96484,-17.71485 4.72407,-4.64261 11.07655,-6.96484 19.0586,-6.96484 l -43.97657,0 z m 83.4375,0 0,87.72265 1.46094,0 32.00977,-87.72265 -33.47071,0 z m 46.05469,0 32.00977,87.72265 33.4082,0 0,-77.21484 -44.4707,0 0,-10.50781 -20.94727,0 z m 77.26953,0 0,87.72265 208.72852,0 0,-87.72265 -208.72852,0 z m -159.24218,10.14062 c -11.56582,0 -17.34961,4.88818 -17.34961,14.66211 0,10.50698 5.94627,15.75977 17.83789,15.75977 l 23.58007,0 0,-30.42188 -24.06835,0 z m -53.87305,2.81055 -25.04688,74.77148 50.0918,0 -24.80078,-74.77148 -0.24414,0 z m 129.49219,0 -25.04493,74.77148 50.0918,0 -24.80273,-74.77148 -0.24414,0 z m -226.55274,33.8418 0,40.92968 45.81641,0 0,-40.92968 -45.81641,0 z"
       id="rect5246"
       inkscape:connector-curvature="0" />
    <text
       xml:space="preserve"
       style="font-style:normal;font-weight:normal;font-size:115.55060577px;line-height:125%;font-family:sans-serif;letter-spacing:0px;word-spacing:0px;fill:#000000;fill-opacity:1;stroke:none;stroke-width:1px;stroke-linecap:butt;stroke-linejoin:miter;stroke-opacity:1"
       x="127.87002"
       y="772.33728"
       id="text5295"
       sodipodi:linespacing="125%"><tspan
         sodipodi:role="line"
         id="tspan5297"
         x="127.87002"
         y="772.33728"
         style="font-style:normal;font-variant:normal;font-weight:normal;font-stretch:normal;font-family:KaiskiHelve1;-inkscape-font-specification:KaiskiHelve1;letter-spacing:-8.260005px">K<tspan
   style="letter-spacing:1.69000006px"
   id="tspan5525">I</tspan>M<tspan
   style="letter-spacing:-6.63999987px"
   id="tspan5739">E</tspan>IGA</tspan></text>
    <text
       sodipodi:linespacing="125%"
       id="text5947"
       y="886.83624"
       x="139.35809"
       style="font-style:normal;font-weight:normal;font-size:115.55060577px;line-height:125%;font-family:sans-serif;letter-spacing:0px;word-spacing:0px;fill:#000000;fill-opacity:1;stroke:none;stroke-width:1px;stroke-linecap:butt;stroke-linejoin:miter;stroke-opacity:1"
       xml:space="preserve"><tspan
         style="font-style:normal;font-variant:normal;font-weight:normal;font-stretch:normal;font-family:KaiskiHelve1;-inkscape-font-specification:KaiskiHelve1;letter-spacing:-8.260005px"
         y="886.83624"
         x="139.35809"
         id="tspan5949"
         sodipodi:role="line">K<tspan
   id="tspan5951"
   style="letter-spacing:1.69000006px">I</tspan>M<tspan
   id="tspan5953"
   style="letter-spacing:-6.63999987px">E</tspan>IGA</tspan></text>
    <rect
       style="opacity:1;fill:#ff0000;fill-opacity:1;fill-rule:evenodd;stroke:none;stroke-width:5;stroke-linecap:square;stroke-linejoin:round;stroke-miterlimit:4;stroke-dasharray:none;stroke-dashoffset:0;stroke-opacity:1"
       id="rect5971"
       width="58.148647"
       height="25.930117"
       x="392.56348"
       y="831.89716" />
    <path
       inkscape:connector-curvature="0"
       id="path4164"
       d="m 823.81472,564.41782 0,87.72265 208.72848,0 0,-87.72265 -208.72848,0 z m 220.57808,0 0,36.28711 45.8165,0 0,-36.28711 -45.8165,0 z m 57.6661,0 0,87.72265 1.1543,0 32.0097,-87.72265 -33.164,0 z m 45.748,0 32.0098,87.72265 39.5781,0 0,-37.01953 -27.6113,0 c -4.5612,0 -8.5934,-0.73313 -12.0957,-2.19921 -3.4209,-1.54756 -6.1077,-3.58445 -8.0625,-6.10938 -1.9548,-2.60638 -3.4211,-5.37446 -4.3985,-8.30664 -0.9774,-3.01363 -1.4668,-6.15023 -1.4668,-9.4082 0,-7.16756 2.3223,-13.07223 6.9649,-17.71485 4.724,-4.64261 11.0765,-6.96484 19.0586,-6.96484 l -43.9766,0 z m 83.4375,0 0,87.72265 1.4609,0 32.0098,-87.72265 -33.4707,0 z m 46.0547,0 32.0098,87.72265 33.4082,0 0,-77.21484 -44.4707,0 0,-10.50781 -20.9473,0 z m 77.2695,0 0,87.72265 208.7285,0 0,-87.72265 -208.7285,0 z m -159.2422,10.14062 c -11.5658,0 -17.3496,4.88818 -17.3496,14.66211 0,10.50698 5.9463,15.75977 17.8379,15.75977 l 23.5801,0 0,-30.42188 -24.0684,0 z m -53.873,2.81055 -25.0469,74.77148 50.0918,0 -24.8008,-74.77148 -0.2441,0 z m 129.4922,0 -25.0449,74.77148 50.0918,0 -24.8028,-74.77148 -0.2441,0 z m -226.5528,33.8418 0,40.92968 45.8165,0 0,-40.92968 -45.8165,0 z"
       style="opacity:1;fill:#ff0000;fill-opacity:1;fill-rule:evenodd;stroke:none;stroke-width:5;stroke-linecap:square;stroke-linejoin:round;stroke-miterlimit:4;stroke-dasharray:none;stroke-dashoffset:0;stroke-opacity:1" />
    <text
       sodipodi:linespacing="125%"
       id="text4174"
       y="701.71771"
       x="1030.4286"
       style="font-style:normal;font-weight:normal;font-size:24.74515533px;line-height:125%;font-family:sans-serif;letter-spacing:0px;word-spacing:0px;fill:#000000;fill-opacity:1;stroke:none;stroke-width:1px;stroke-linecap:butt;stroke-linejoin:miter;stroke-opacity:1"
       xml:space="preserve"><tspan
         style="font-style:normal;font-variant:normal;font-weight:normal;font-stretch:normal;font-family:KaiskiHelve1;-inkscape-font-specification:KaiskiHelve1;letter-spacing:-1.76887977px"
         y="701.71771"
         x="1030.4286"
         id="tspan4176"
         sodipodi:role="line">K<tspan
   id="tspan4178"
   style="letter-spacing:0.36191344px">I</tspan>M<tspan
   id="tspan4180"
   style="letter-spacing:-1.42195559px">E</tspan>IG<tspan
   style="letter-spacing:-3.82999996px"
   id="tspan4498">A</tspan>°</tspan></text>
    <text
       xml:space="preserve"
       style="font-style:normal;font-weight:normal;font-size:24.74515533px;line-height:322.00000286%;font-family:sans-serif;letter-spacing:0px;word-spacing:0px;fill:#000000;fill-opacity:1;stroke:none;stroke-width:1px;stroke-linecap:butt;stroke-linejoin:miter;stroke-opacity:1"
       x="1031.3193"
       y="680.51794"
       id="text4182"
       sodipodi:linespacing="322%"><tspan
         sodipodi:role="line"
         id="tspan4184"
         x="1031.3193"
         y="680.51794"
         style="font-style:normal;font-variant:normal;font-weight:normal;font-stretch:normal;font-family:KaiskiHelve1;-inkscape-font-specification:KaiskiHelve1;letter-spacing:-1.04933524px">SEL<tspan
   style="line-height:323.00000191%;letter-spacing:0.00428308px"
   id="tspan4330">I</tspan>M AL<tspan
   style="letter-spacing:-3.62555695px"
   id="tspan4246">P</tspan><tspan
   style="letter-spacing:-1.35556924px"
   id="tspan4190">A</tspan>Y 18</tspan></text>
    <path
       style="opacity:1;fill:#ff0000;fill-opacity:1;fill-rule:evenodd;stroke:none;stroke-width:5;stroke-linecap:square;stroke-linejoin:round;stroke-miterlimit:4;stroke-dasharray:none;stroke-dashoffset:0;stroke-opacity:1"
       d="m 1786.6719,564.41782 0,87.72265 208.7284,0 0,-87.72265 -208.7284,0 z m 220.578,0 0,36.28711 45.8165,0 0,-36.28711 -45.8165,0 z m 57.6661,0 0,87.72265 1.1543,0 32.0097,-87.72265 -33.164,0 z m 45.748,0 32.0098,87.72265 39.5781,0 0,-37.01953 -27.6113,0 c -4.5612,0 -8.5934,-0.73313 -12.0957,-2.19921 -3.4209,-1.54756 -6.1077,-3.58445 -8.0625,-6.10938 -1.9548,-2.60638 -3.4211,-5.37446 -4.3985,-8.30664 -0.9774,-3.01363 -1.4668,-6.15023 -1.4668,-9.4082 0,-7.16756 2.3223,-13.07223 6.9649,-17.71485 4.724,-4.64261 11.0765,-6.96484 19.0586,-6.96484 l -43.9766,0 z m 83.4375,0 0,87.72265 1.4609,0 32.0098,-87.72265 -33.4707,0 z m 46.0547,0 32.0098,87.72265 33.4082,0 0,-77.21484 -44.4707,0 0,-10.50781 -20.9473,0 z m 77.2695,0 0,87.72265 208.7285,0 0,-87.72265 -208.7285,0 z m -159.2422,10.14062 c -11.5658,0 -17.3496,4.88818 -17.3496,14.66211 0,10.50698 5.9463,15.75977 17.8379,15.75977 l 23.5801,0 0,-30.42188 -24.0684,0 z m -53.873,2.81055 -25.0469,74.77148 50.0918,0 -24.8008,-74.77148 -0.2441,0 z m 129.4922,0 -25.0449,74.77148 50.0918,0 -24.8028,-74.77148 -0.2441,0 z m -226.5528,33.8418 0,40.92968 45.8165,0 0,-40.92968 -45.8165,0 z"
       id="path4552"
       inkscape:connector-curvature="0" />
    <text
       xml:space="preserve"
       style="font-style:normal;font-weight:normal;font-size:24.74515533px;line-height:125%;font-family:sans-serif;letter-spacing:0px;word-spacing:0px;fill:#000000;fill-opacity:1;stroke:none;stroke-width:1px;stroke-linecap:butt;stroke-linejoin:miter;stroke-opacity:1"
       x="1993.2858"
       y="701.71771"
       id="text4554"
       sodipodi:linespacing="125%"><tspan
         sodipodi:role="line"
         id="tspan4556"
         x="1993.2858"
         y="701.71771"
         style="font-style:normal;font-variant:normal;font-weight:normal;font-stretch:normal;font-family:KaiskiHelve1;-inkscape-font-specification:KaiskiHelve1;letter-spacing:-1.76887977px">K<tspan
   style="letter-spacing:0.36191344px"
   id="tspan4558">I</tspan>M<tspan
   style="letter-spacing:-1.42195559px"
   id="tspan4560">E</tspan>IG<tspan
   id="tspan4562"
   style="letter-spacing:-3.82999992px">A</tspan>°</tspan></text>
    <text
       sodipodi:linespacing="322%"
       id="text4564"
       y="680.51794"
       x="1994.1765"
       style="font-style:normal;font-weight:normal;font-size:24.74515533px;line-height:322.00000286%;font-family:sans-serif;letter-spacing:0px;word-spacing:0px;fill:#000000;fill-opacity:1;stroke:none;stroke-width:1px;stroke-linecap:butt;stroke-linejoin:miter;stroke-opacity:1"
       xml:space="preserve"><tspan
         style="font-style:normal;font-variant:normal;font-weight:normal;font-stretch:normal;font-family:KaiskiHelve1;-inkscape-font-specification:KaiskiHelve1;letter-spacing:-1.04933524px"
         y="680.51794"
         x="1994.1765"
         id="tspan4566"
         sodipodi:role="line">SEL<tspan
   id="tspan4568"
   style="line-height:323.00000191%;letter-spacing:0.00428308px">I</tspan>M AL<tspan
   id="tspan4570"
   style="letter-spacing:-3.62555695px">P</tspan><tspan
   id="tspan4572"
   style="letter-spacing:-1.35556924px">A</tspan>Y 18</tspan></text>
  </g>
</svg>
